<svg width="93" height="93" viewBox="0 0 93 93" fill="none" xmlns="http://www.w3.org/2000/svg">
<g filter="url(#filter0_d_2_2250)">
<circle cx="46.5" cy="46.5" r="22.5" fill="#24263B"/>
</g>
<path d="M45.9688 40.0625C45.6562 40.375 45.6875 40.8438 45.9688 41.1562L49.75 44.75H40.75C40.3438 44.75 40 45.0625 40 45.5V46.5C40 46.9062 40.3438 47.25 40.75 47.25H49.75L45.9688 50.8125C45.6875 51.125 45.6562 51.5938 45.9688 51.9062L46.6562 52.5938C46.9375 52.875 47.4375 52.875 47.7188 52.5938L53.7812 46.5C54.0938 46.2188 54.0938 45.75 53.7812 45.4688L47.7188 39.375C47.4375 39.0938 46.9688 39.0938 46.6562 39.375L45.9688 40.0625Z" fill="white"/>
<defs>
<filter id="filter0_d_2_2250" x="0" y="0" width="93" height="93" filterUnits="userSpaceOnUse" color-interpolation-filters="sRGB">
<feFlood flood-opacity="0" result="BackgroundImageFix"/>
<feColorMatrix in="SourceAlpha" type="matrix" values="0 0 0 0 0 0 0 0 0 0 0 0 0 0 0 0 0 0 127 0" result="hardAlpha"/>
<feOffset/>
<feGaussianBlur stdDeviation="12"/>
<feColorMatrix type="matrix" values="0 0 0 0 0.0590972 0 0 0 0 0.0622917 0 0 0 0 0.0958333 0 0 0 0.42 0"/>
<feBlend mode="normal" in2="BackgroundImageFix" result="effect1_dropShadow_2_2250"/>
<feBlend mode="normal" in="SourceGraphic" in2="effect1_dropShadow_2_2250" result="shape"/>
</filter>
</defs>
</svg>
